{
  "accessors": [
    {
      "bufferView": 2,
      "componentType": 5126,
      "count": 865,
      "max": [
        0.7690556645393372,
        0.1888938546180725,
        0.7930227518081665
      ],
      "min": [
        -0.7694658041000366,
        -0.19688141345977783,
        -0.9957830905914307
      ],
      "type": "VEC3"
    },
    {
      "bufferView": 2,
      "byteOffset": 10380,
      "componentType": 5126,
      "count": 865,
      "max": [
        0.9989079833030701,
        0.9994880557060242,
        0.9995824694633484
      ],
      "min": [
        -0.9988988637924194,
        -0.9990014433860779,
        -0.999951958656311
      ],
      "type": "VEC3"
    },
    {
      "bufferView": 1,
      "componentType": 5126,
      "count": 865,
      "max": [
        1.0000001192092896,
        0.9849023222923279
      ],
      "min": [
        -1.6787296885922842e-08,
        -1.2165621399162774e-08
      ],
      "type": "VEC2"
    },
    {
      "bufferView": 0,
      "componentType": 5125,
      "count": 2415,
      "type": "SCALAR"
    }
  ],
  "asset": {
    "extras": {
      "author": "Amateur Guy (https://sketchfab.com/amateurguy)",
      "license": "CC-BY-4.0 (http://creativecommons.org/licenses/by/4.0/)",
      "source": "https://sketchfab.com/3d-models/wolverine-game-ready-ps1-model-ceb55d3343c24d5fa158ed0588b447d0",
      "title": "Wolverine Game Ready Ps1 Model"
    },
    "generator": "Sketchfab-17.17.0",
    "version": "2.0"
  },
  "bufferViews": [
    {
      "buffer": 0,
      "byteLength": 9660,
      "name": "floatBufferViews",
      "target": 34963
    },
    {
      "buffer": 0,
      "byteLength": 6920,
      "byteOffset": 9660,
      "byteStride": 8,
      "name": "floatBufferViews",
      "target": 34962
    },
    {
      "buffer": 0,
      "byteLength": 20760,
      "byteOffset": 16580,
      "byteStride": 12,
      "name": "floatBufferViews",
      "target": 34962
    }
  ],
  "buffers": [
    {
      "byteLength": 37340,
      "uri": "scene.bin"
    }
  ],
  "extensionsUsed": [
    "KHR_materials_unlit"
  ],
  "images": [
    {
      "uri": "textures/Material.001_baseColor.png"
    }
  ],
  "materials": [
    {
      "doubleSided": true,
      "extensions": {
        "KHR_materials_unlit": {}
      },
      "name": "Material.001",
      "pbrMetallicRoughness": {
        "baseColorTexture": {
          "index": 0
        },
        "metallicFactor": 0.0
      }
    }
  ],
  "meshes": [
    {
      "name": "Cube_Material.001_0",
      "primitives": [
        {
          "attributes": {
            "NORMAL": 1,
            "POSITION": 0,
            "TEXCOORD_0": 2
          },
          "indices": 3,
          "material": 0,
          "mode": 4
        }
      ]
    }
  ],
  "nodes": [
    {
      "children": [
        1
      ],
      "matrix": [
        0.8885700702667236,
        0.0,
        0.0,
        0.0,
        0.0,
        1.9730219020058196e-16,
        -0.8885700702667236,
        0.0,
        0.0,
        0.8885700702667236,
        1.9730219020058196e-16,
        0.0,
        0.0,
        0.0,
        0.0,
        1.0
      ],
      "name": "Sketchfab_model"
    },
    {
      "children": [
        2
      ],
      "matrix": [
        0.009999999776482582,
        0.0,
        0.0,
        0.0,
        0.0,
        0.0,
        0.009999999776482582,
        0.0,
        0.0,
        -0.009999999776482582,
        0.0,
        0.0,
        0.0,
        0.0,
        0.0,
        1.0
      ],
      "name": "771158f092ff4a0daee10e7c9cab5e8c.fbx"
    },
    {
      "children": [
        3
      ],
      "name": "RootNode"
    },
    {
      "children": [
        4
      ],
      "matrix": [
        100.0,
        0.0,
        0.0,
        0.0,
        0.0,
        -1.629206793918314e-05,
        -99.99999999999868,
        0.0,
        0.0,
        99.99999999999868,
        -1.629206793918314e-05,
        0.0,
        0.18609724938869476,
        99.3922348022461,
        -1.1343765258789063,
        1.0
      ],
      "name": "Cube"
    },
    {
      "mesh": 0,
      "name": "Cube_Material.001_0"
    }
  ],
  "samplers": [
    {
      "magFilter": 9729,
      "minFilter": 9987,
      "wrapS": 10497,
      "wrapT": 10497
    }
  ],
  "scene": 0,
  "scenes": [
    {
      "name": "Sketchfab_Scene",
      "nodes": [
        0
      ]
    }
  ],
  "textures": [
    {
      "sampler": 0,
      "source": 0
    }
  ]
}
