{
  "accessors": [
    {
      "bufferView": 3,
      "componentType": 5126,
      "count": 11,
      "max": [
        8.34264087677002,
        150.82821655273438,
        -0.205764502286911
      ],
      "min": [
        6.425727367401123,
        146.7124481201172,
        -2.4535722732543945
      ],
      "type": "VEC3"
    },
    {
      "bufferView": 3,
      "byteOffset": 132,
      "componentType": 5126,
      "count": 11,
      "max": [
        0.832597553730011,
        0.540576159954071,
        0.7023769021034241
      ],
      "min": [
        -0.8408924341201782,
        -0.35767489671707153,
        -0.9410750865936279
      ],
      "type": "VEC3"
    },
    {
      "bufferView": 2,
      "componentType": 5126,
      "count": 11,
      "max": [
        0.9904628396034241,
        0.9855436682701111
      ],
      "min": [
        0.5314123630523682,
        0.5236425399780273
      ],
      "type": "VEC2"
    },
    {
      "bufferView": 1,
      "componentType": 5125,
      "count": 21,
      "type": "SCALAR"
    },
    {
      "bufferView": 3,
      "byteOffset": 264,
      "componentType": 5126,
      "count": 18,
      "max": [
        13.088470458984375,
        140.57603454589844,
        9.855777740478516
      ],
      "min": [
        2.9483156204223633,
        132.04647827148438,
        -0.35050201416015625
      ],
      "type": "VEC3"
    },
    {
      "bufferView": 3,
      "byteOffset": 480,
      "componentType": 5126,
      "count": 18,
      "max": [
        0.6850444674491882,
        0.9890758991241455,
        0.8136928081512451
      ],
      "min": [
        -0.6850453019142151,
        -0.989077091217041,
        -0.813693642616272
      ],
      "type": "VEC3"
    },
    {
      "bufferView": 2,
      "byteOffset": 88,
      "componentType": 5126,
      "count": 18,
      "max": [
        1.0,
        1.0
      ],
      "min": [
        0.0,
        0.0
      ],
      "type": "VEC2"
    },
    {
      "bufferView": 2,
      "byteOffset": 232,
      "componentType": 5126,
      "count": 18,
      "max": [
        1.0,
        1.0
      ],
      "min": [
        0.0,
        0.0
      ],
      "type": "VEC2"
    },
    {
      "bufferView": 1,
      "byteOffset": 84,
      "componentType": 5125,
      "count": 48,
      "type": "SCALAR"
    },
    {
      "bufferView": 3,
      "byteOffset": 696,
      "componentType": 5126,
      "count": 141,
      "max": [
        19.267107009887695,
        97.64032745361328,
        25.281225204467773
      ],
      "min": [
        -19.267107009887695,
        -10.622182846069336,
        -15.148762702941895
      ],
      "type": "VEC3"
    },
    {
      "bufferView": 3,
      "byteOffset": 2388,
      "componentType": 5126,
      "count": 141,
      "max": [
        0.9999988079071045,
        0.8637501001358032,
        0.9964687824249268
      ],
      "min": [
        -0.9999988079071045,
        -0.9995014071464539,
        -0.9988620281219482
      ],
      "type": "VEC3"
    },
    {
      "bufferView": 2,
      "byteOffset": 376,
      "componentType": 5126,
      "count": 141,
      "max": [
        0.6772556304931641,
        0.2385258674621582
      ],
      "min": [
        0.04696387052536011,
        0.00289839506149292
      ],
      "type": "VEC2"
    },
    {
      "bufferView": 1,
      "byteOffset": 276,
      "componentType": 5125,
      "count": 450,
      "type": "SCALAR"
    },
    {
      "bufferView": 3,
      "byteOffset": 4080,
      "componentType": 5126,
      "count": 44,
      "max": [
        26.50316047668457,
        162.11398315429688,
        26.015886306762695
      ],
      "min": [
        -26.50316047668457,
        146.20504760742188,
        -30.085433959960938
      ],
      "type": "VEC3"
    },
    {
      "bufferView": 3,
      "byteOffset": 4608,
      "componentType": 5126,
      "count": 44,
      "max": [
        0.8588009476661682,
        1.0,
        0.9824662208557129
      ],
      "min": [
        -0.8588008880615234,
        0.18195021152496338,
        -0.9822903871536255
      ],
      "type": "VEC3"
    },
    {
      "bufferView": 2,
      "byteOffset": 1504,
      "componentType": 5126,
      "count": 44,
      "max": [
        0.9903119802474976,
        0.4691704213619232
      ],
      "min": [
        0.6926406621932983,
        0.22613635659217834
      ],
      "type": "VEC2"
    },
    {
      "bufferView": 1,
      "byteOffset": 2076,
      "componentType": 5125,
      "count": 186,
      "type": "SCALAR"
    },
    {
      "bufferView": 3,
      "byteOffset": 5136,
      "componentType": 5126,
      "count": 404,
      "max": [
        76.43107604980469,
        159.54296875,
        19.33853530883789
      ],
      "min": [
        -76.43107604980469,
        -11.636594772338867,
        -42.173526763916016
      ],
      "type": "VEC3"
    },
    {
      "bufferView": 3,
      "byteOffset": 9984,
      "componentType": 5126,
      "count": 404,
      "max": [
        0.9998295903205872,
        0.9997241497039795,
        0.9999445676803589
      ],
      "min": [
        -0.9998296499252319,
        -0.9998646974563599,
        -0.9997680187225342
      ],
      "type": "VEC3"
    },
    {
      "bufferView": 2,
      "byteOffset": 1856,
      "componentType": 5126,
      "count": 404,
      "max": [
        0.9972940683364868,
        0.9999980926513672
      ],
      "min": [
        0.004330468829721212,
        0.006473157554864883
      ],
      "type": "VEC2"
    },
    {
      "bufferView": 1,
      "byteOffset": 2820,
      "componentType": 5125,
      "count": 1512,
      "type": "SCALAR"
    },
    {
      "bufferView": 5,
      "componentType": 5126,
      "count": 46,
      "max": [
        1.0,
        1.0,
        1.0,
        0.0,
        0.9998957514762878,
        1.0,
        0.9974790215492249,
        0.0,
        0.9755523204803467,
        0.9985979795455933,
        1.0,
        0.0,
        133.6133575439453,
        137.81130981445313,
        108.5835189819336,
        1.0
      ],
      "min": [
        -1.380163325848116e-07,
        -1.0,
        -1.0,
        0.0,
        -0.9985979795455933,
        -0.9998449683189392,
        -0.4521099627017975,
        0.0,
        -0.9963598847389221,
        -0.6572127342224121,
        -0.9999860525131226,
        0.0,
        -151.6762237548828,
        -137.81126403808594,
        -108.58842468261719,
        1.0
      ],
      "type": "MAT4"
    },
    {
      "bufferView": 0,
      "componentType": 5123,
      "count": 11,
      "type": "VEC4"
    },
    {
      "bufferView": 4,
      "componentType": 5126,
      "count": 11,
      "max": [
        1.0,
        0.0,
        0.0,
        0.0
      ],
      "min": [
        1.0,
        0.0,
        0.0,
        0.0
      ],
      "type": "VEC4"
    },
    {
      "bufferView": 0,
      "byteOffset": 88,
      "componentType": 5123,
      "count": 18,
      "type": "VEC4"
    },
    {
      "bufferView": 4,
      "byteOffset": 176,
      "componentType": 5126,
      "count": 18,
      "max": [
        1.0,
        0.0,
        0.0,
        0.0
      ],
      "min": [
        1.0,
        0.0,
        0.0,
        0.0
      ],
      "type": "VEC4"
    },
    {
      "bufferView": 0,
      "byteOffset": 232,
      "componentType": 5123,
      "count": 141,
      "type": "VEC4"
    },
    {
      "bufferView": 4,
      "byteOffset": 464,
      "componentType": 5126,
      "count": 141,
      "max": [
        1.0,
        0.49999475479125977,
        0.24117647111415863,
        0.0
      ],
      "min": [
        0.37941575050354004,
        0.0,
        0.0,
        0.0
      ],
      "type": "VEC4"
    },
    {
      "bufferView": 0,
      "byteOffset": 1360,
      "componentType": 5123,
      "count": 44,
      "type": "VEC4"
    },
    {
      "bufferView": 4,
      "byteOffset": 2720,
      "componentType": 5126,
      "count": 44,
      "max": [
        1.0,
        0.0,
        0.0,
        0.0
      ],
      "min": [
        1.0,
        0.0,
        0.0,
        0.0
      ],
      "type": "VEC4"
    },
    {
      "bufferView": 0,
      "byteOffset": 1712,
      "componentType": 5123,
      "count": 404,
      "type": "VEC4"
    },
    {
      "bufferView": 4,
      "byteOffset": 3424,
      "componentType": 5126,
      "count": 404,
      "max": [
        1.0,
        0.4993515908718109,
        0.2599559426307678,
        0.10480500012636185
      ],
      "min": [
        0.3651368319988251,
        0.0,
        0.0,
        0.0
      ],
      "type": "VEC4"
    }
  ],
  "asset": {
    "extras": {
      "author": "the_regressor (https://sketchfab.com/the-regressor)",
      "license": "CC-BY-4.0 (http://creativecommons.org/licenses/by/4.0/)",
      "source": "https://sketchfab.com/3d-models/low-poly-lady-dimitrescu-f9475c4393fa4587a74a6e40d2da446e",
      "title": "Low poly - Lady Dimitrescu"
    },
    "generator": "Sketchfab-12.66.0",
    "version": "2.0"
  },
  "bufferViews": [
    {
      "buffer": 0,
      "byteLength": 4944,
      "byteStride": 8,
      "name": "shortBufferViews",
      "target": 34962
    },
    {
      "buffer": 0,
      "byteLength": 8868,
      "byteOffset": 4944,
      "name": "floatBufferViews",
      "target": 34963
    },
    {
      "buffer": 0,
      "byteLength": 5088,
      "byteOffset": 13812,
      "byteStride": 8,
      "name": "floatBufferViews",
      "target": 34962
    },
    {
      "buffer": 0,
      "byteLength": 14832,
      "byteOffset": 18900,
      "byteStride": 12,
      "name": "floatBufferViews",
      "target": 34962
    },
    {
      "buffer": 0,
      "byteLength": 9888,
      "byteOffset": 33732,
      "byteStride": 16,
      "name": "floatBufferViews",
      "target": 34962
    },
    {
      "buffer": 0,
      "byteLength": 2944,
      "byteOffset": 43620,
      "name": "floatBufferViews"
    }
  ],
  "buffers": [
    {
      "byteLength": 46564,
      "uri": "scene.bin"
    }
  ],
  "extensionsUsed": [
    "KHR_materials_unlit"
  ],
  "images": [
    {
      "uri": "textures/Dimitrescu_baseColor.png"
    },
    {
      "uri": "textures/Flower_MAT_baseColor.png"
    }
  ],
  "materials": [
    {
      "doubleSided": true,
      "extensions": {
        "KHR_materials_unlit": {}
      },
      "name": "Dimitrescu",
      "pbrMetallicRoughness": {
        "baseColorTexture": {
          "index": 0
        },
        "metallicFactor": 0.0
      }
    },
    {
      "alphaMode": "BLEND",
      "doubleSided": true,
      "extensions": {
        "KHR_materials_unlit": {}
      },
      "name": "Flower_MAT",
      "pbrMetallicRoughness": {
        "baseColorTexture": {
          "index": 1
        },
        "metallicFactor": 0.0
      }
    },
    {
      "doubleSided": true,
      "extensions": {
        "KHR_materials_unlit": {}
      },
      "name": "Dimitrescu_0",
      "pbrMetallicRoughness": {
        "baseColorTexture": {
          "index": 0
        },
        "metallicFactor": 0.0
      }
    },
    {
      "doubleSided": true,
      "extensions": {
        "KHR_materials_unlit": {}
      },
      "name": "Dimitrescu_1",
      "pbrMetallicRoughness": {
        "baseColorTexture": {
          "index": 0
        },
        "metallicFactor": 0.0
      }
    },
    {
      "extensions": {
        "KHR_materials_unlit": {}
      },
      "name": "Dimitrescu_2",
      "pbrMetallicRoughness": {
        "baseColorTexture": {
          "index": 0
        },
        "metallicFactor": 0.0
      }
    }
  ],
  "meshes": [
    {
      "name": "ear_GEO_Dimitrescu_0",
      "primitives": [
        {
          "attributes": {
            "JOINTS_0": 22,
            "NORMAL": 1,
            "POSITION": 0,
            "TEXCOORD_0": 2,
            "WEIGHTS_0": 23
          },
          "indices": 3,
          "material": 0,
          "mode": 4
        }
      ]
    },
    {
      "name": "Flower_GEO_Flower_MAT_0",
      "primitives": [
        {
          "attributes": {
            "JOINTS_0": 24,
            "NORMAL": 5,
            "POSITION": 4,
            "TEXCOORD_0": 6,
            "TEXCOORD_1": 6,
            "TEXCOORD_2": 7,
            "WEIGHTS_0": 25
          },
          "indices": 8,
          "material": 1,
          "mode": 4
        }
      ]
    },
    {
      "name": "legs_GEO_Dimitrescu_0",
      "primitives": [
        {
          "attributes": {
            "JOINTS_0": 26,
            "NORMAL": 10,
            "POSITION": 9,
            "TEXCOORD_0": 11,
            "WEIGHTS_0": 27
          },
          "indices": 12,
          "material": 2,
          "mode": 4
        }
      ]
    },
    {
      "name": "hat_GEO_Dimitrescu_0",
      "primitives": [
        {
          "attributes": {
            "JOINTS_0": 28,
            "NORMAL": 14,
            "POSITION": 13,
            "TEXCOORD_0": 15,
            "WEIGHTS_0": 29
          },
          "indices": 16,
          "material": 3,
          "mode": 4
        }
      ]
    },
    {
      "name": "Body_GEO_Dimitrescu_0",
      "primitives": [
        {
          "attributes": {
            "JOINTS_0": 30,
            "NORMAL": 18,
            "POSITION": 17,
            "TEXCOORD_0": 19,
            "WEIGHTS_0": 31
          },
          "indices": 20,
          "material": 4,
          "mode": 4
        }
      ]
    }
  ],
  "nodes": [
    {
      "children": [
        1
      ],
      "matrix": [
        1.0,
        0.0,
        0.0,
        0.0,
        0.0,
        2.220446049250313e-16,
        -1.0,
        0.0,
        0.0,
        1.0,
        2.220446049250313e-16,
        0.0,
        0.0,
        0.0,
        0.0,
        1.0
      ],
      "name": "Sketchfab_model"
    },
    {
      "children": [
        2
      ],
      "matrix": [
        1.0,
        0.0,
        0.0,
        0.0,
        0.0,
        0.0,
        1.0,
        0.0,
        0.0,
        -1.0,
        0.0,
        0.0,
        0.0,
        0.0,
        0.0,
        1.0
      ],
      "name": "Dimitrescu.fbx"
    },
    {
      "children": [
        3
      ],
      "name": "RootNode"
    },
    {
      "children": [
        4,
        6,
        8,
        10,
        12,
        14,
        5,
        7,
        9,
        11,
        13
      ],
      "name": "Object_3"
    },
    {
      "children": [
        15
      ],
      "name": "_rootJoint"
    },
    {
      "matrix": [
        1.0,
        -1.9721522630525295e-31,
        1.5777218104420236e-30,
        0.0,
        1.9721522630525295e-31,
        1.0,
        -1.3877787807814457e-17,
        0.0,
        -1.5777218104420236e-30,
        1.3877787807814457e-17,
        1.0,
        0.0,
        0.0,
        0.0,
        0.0,
        1.0
      ],
      "name": "Object_5"
    },
    {
      "mesh": 0,
      "name": "Object_6",
      "skin": 0
    },
    {
      "matrix": [
        1.0,
        2.465190328815662e-32,
        0.0,
        0.0,
        -2.465190328815662e-32,
        1.0,
        0.0,
        0.0,
        0.0,
        0.0,
        1.0,
        0.0,
        -5.048709793414476e-29,
        -1.4210854715202004e-14,
        8.881784197001252e-16,
        1.0
      ],
      "name": "Object_7"
    },
    {
      "mesh": 1,
      "name": "Object_8",
      "skin": 0
    },
    {
      "matrix": [
        1.0,
        3.9674156854377064e-32,
        0.0,
        0.0,
        -3.9674156854377064e-32,
        1.0,
        0.0,
        0.0,
        0.0,
        0.0,
        1.0,
        0.0,
        7.642090019328552e-31,
        0.0,
        8.881784197001252e-16,
        1.0
      ],
      "name": "Object_9"
    },
    {
      "mesh": 2,
      "name": "Object_10",
      "skin": 0
    },
    {
      "matrix": [
        1.0,
        2.465190328815662e-32,
        0.0,
        0.0,
        -2.465190328815662e-32,
        1.0,
        0.0,
        0.0,
        0.0,
        0.0,
        1.0,
        0.0,
        -5.048709793414476e-29,
        -1.4210854715202004e-14,
        8.881784197001252e-16,
        1.0
      ],
      "name": "Object_11"
    },
    {
      "mesh": 3,
      "name": "Object_12",
      "skin": 0
    },
    {
      "matrix": [
        1.0,
        3.9674156854377064e-32,
        0.0,
        0.0,
        -3.9674156854377064e-32,
        1.0,
        0.0,
        0.0,
        0.0,
        0.0,
        1.0,
        0.0,
        7.642090019328552e-31,
        0.0,
        8.881784197001252e-16,
        1.0
      ],
      "name": "Object_13"
    },
    {
      "mesh": 4,
      "name": "Object_14",
      "skin": 0
    },
    {
      "children": [
        16,
        49,
        54
      ],
      "name": "hip_jnt_00",
      "rotation": [
        0.13322700560092926,
        0.08925602585077286,
        0.694442629814148,
        0.7014508843421936
      ],
      "translation": [
        -0.11903179436922073,
        109.69666290283203,
        12.13607406616211
      ]
    },
    {
      "children": [
        17
      ],
      "name": "spine_jnt_01_02",
      "rotation": [
        0.9978083968162537,
        -0.011236542835831642,
        -0.0651916116476059,
        0.0014877377543598413
      ],
      "translation": [
        10.04251480102539,
        -4.440892098500626e-16,
        -8.923343131073125e-08
      ]
    },
    {
      "children": [
        18,
        32,
        46
      ],
      "name": "spine_jnt_02_03",
      "rotation": [
        -0.00011744659423129633,
        -0.07326208055019379,
        0.022022154182195663,
        0.9970695376396179
      ],
      "translation": [
        6.5,
        -3.872457909892546e-13,
        0.4114176332950592
      ]
    },
    {
      "children": [
        19
      ],
      "name": "L_clavic_jnt_04",
      "rotation": [
        0.04396394267678261,
        0.9344497323036194,
        0.35333532094955444,
        0.005002062767744064
      ],
      "translation": [
        20.001440048217773,
        3.688669204711914,
        -5.51167631149292
      ]
    },
    {
      "children": [
        20
      ],
      "name": "L_shldr_jnt_05",
      "rotation": [
        0.7422134876251221,
        0.21004079282283783,
        0.4210343658924103,
        0.4772128462791443
      ],
      "translation": [
        1.3658407926559448,
        11.964858055114746,
        -0.326006144285202
      ]
    },
    {
      "children": [
        21
      ],
      "name": "L_elbow_jnt_06",
      "rotation": [
        -0.011338949203491211,
        0.8664183020591736,
        -0.006915425881743431,
        -0.49914246797561646
      ],
      "translation": [
        23.0,
        -7.923554949229583e-05,
        0.00018872269720304757
      ]
    },
    {
      "children": [
        22,
        24,
        26,
        28,
        30
      ],
      "name": "L_wrist_jnt_07",
      "rotation": [
        -0.3936748802661896,
        0.5598076581954956,
        0.42983463406562805,
        0.5889632105827332
      ],
      "translation": [
        23.0,
        -7.433578866766766e-05,
        0.00012843935110140592
      ]
    },
    {
      "children": [
        23
      ],
      "name": "L_mid_jnt_001_08",
      "rotation": [
        -0.009816559962928295,
        0.02619539573788643,
        -0.14570514857769012,
        0.9889324903488159
      ],
      "translation": [
        9.59961223602295,
        0.4319688081741333,
        -0.3523213267326355
      ]
    },
    {
      "name": "L_mid_jnt_002_01",
      "rotation": [
        0.00012527355283964425,
        5.117057298775762e-06,
        -0.11357453465461731,
        0.9935294985771179
      ],
      "translation": [
        4.079019069671631,
        -0.0342017337679863,
        0.0009669347200542688
      ]
    },
    {
      "children": [
        25
      ],
      "name": "L_thumb_jnt1_09",
      "rotation": [
        0.5491101145744324,
        -0.6341144442558289,
        -0.10307818651199341,
        0.5345577597618103
      ],
      "translation": [
        4.353152751922607,
        -1.0181636810302734,
        3.930105686187744
      ]
    },
    {
      "name": "L_thumb_jnt2_010",
      "rotation": [
        1.1059311688654816e-08,
        -4.245719864570674e-08,
        -0.06563790887594223,
        0.9978435039520264
      ],
      "translation": [
        2.039855718612671,
        -0.0875786617398262,
        0.0009028065833263099
      ]
    },
    {
      "children": [
        27
      ],
      "name": "L_point_jnt_001_011",
      "rotation": [
        -0.009816569276154041,
        0.02619597688317299,
        -0.14570514857769012,
        0.9889324903488159
      ],
      "translation": [
        9.264451026916504,
        0.42923495173454285,
        1.7425063848495483
      ]
    },
    {
      "name": "L_point_jnt_002_012",
      "rotation": [
        0.0001252433139597997,
        5.650108960253419e-06,
        -0.11357453465461731,
        0.9935294985771179
      ],
      "translation": [
        4.085253715515137,
        -0.02097316086292267,
        0.001158665749244392
      ]
    },
    {
      "children": [
        29
      ],
      "name": "L_ring_jnt_001_013",
      "rotation": [
        -0.009816559962928295,
        0.02619539573788643,
        -0.14570514857769012,
        0.9889324903488159
      ],
      "translation": [
        9.123778343200684,
        0.41269728541374207,
        -2.3493335247039795
      ]
    },
    {
      "name": "L_ring_jnt_002_014",
      "rotation": [
        0.00012527355283964425,
        5.117057298775762e-06,
        -0.11357453465461731,
        0.9935294985771179
      ],
      "translation": [
        4.009746551513672,
        -0.036771226674318314,
        0.0008875381899997592
      ]
    },
    {
      "children": [
        31
      ],
      "name": "L_pink_jnt_001_015",
      "rotation": [
        -0.009816569276154041,
        0.02619597688317299,
        -0.14570514857769012,
        0.9889324903488159
      ],
      "translation": [
        8.588980674743652,
        0.39760643243789673,
        -4.110714435577393
      ]
    },
    {
      "name": "L_pink_jnt_002_016",
      "rotation": [
        0.00012550070823635906,
        5.635286470351275e-06,
        -0.11357453465461731,
        0.9935294985771179
      ],
      "translation": [
        3.469327211380005,
        -0.012363831512629986,
        0.0011592191876843572
      ]
    },
    {
      "children": [
        33
      ],
      "name": "R_clavic_jnt_017",
      "rotation": [
        -0.3483358323574066,
        0.0053782397881150246,
        0.09815970808267593,
        0.93220055103302
      ],
      "translation": [
        20.0633602142334,
        -3.4565982818603516,
        -5.514311790466309
      ]
    },
    {
      "children": [
        34
      ],
      "name": "R_shldr_jnt_018",
      "rotation": [
        -0.22962035238742828,
        -0.15441426634788513,
        0.096827931702137,
        0.9560622572898865
      ],
      "translation": [
        -1.365875482559204,
        -11.964879989624023,
        0.32613471150398254
      ]
    },
    {
      "children": [
        35
      ],
      "name": "R_elbow_jnt_019",
      "rotation": [
        0.009927844628691673,
        -0.8520652651786804,
        0.006437832023948431,
        0.5233017802238464
      ],
      "translation": [
        -22.999746322631836,
        -3.463727261987515e-05,
        -0.00035852749715559185
      ]
    },
    {
      "children": [
        36,
        38,
        40,
        42,
        44
      ],
      "name": "R_wrist_jnt_020",
      "rotation": [
        -0.6226568818092346,
        0.46668875217437744,
        0.2845064401626587,
        0.5599607825279236
      ],
      "translation": [
        -22.9998722076416,
        0.0004308861098252237,
        0.00018085131887346506
      ]
    },
    {
      "children": [
        37
      ],
      "name": "R_mid_jnt_001_021",
      "rotation": [
        -0.019208000972867012,
        0.020183565095067024,
        -0.5399174690246582,
        0.8412566781044006
      ],
      "translation": [
        -9.600899696350098,
        -0.42906543612480164,
        0.3522941768169403
      ]
    },
    {
      "name": "R_mid_jnt_002_022",
      "rotation": [
        0.0006334929494187236,
        0.00042340505751781166,
        -0.5193877816200256,
        0.8545383214950562
      ],
      "translation": [
        -4.078821182250977,
        0.03713485226035118,
        -0.0009530355455353856
      ]
    },
    {
      "children": [
        39
      ],
      "name": "R_thumb_jnt1_023",
      "rotation": [
        0.48699766397476196,
        -0.6829760074615479,
        -0.052314430475234985,
        0.5418857932090759
      ],
      "translation": [
        -4.357306480407715,
        1.0118721723556519,
        -3.924600601196289
      ]
    },
    {
      "name": "R_thumb_jnt2_024",
      "rotation": [
        4.198886793815859e-10,
        -9.916641374729807e-08,
        0.00423414446413517,
        0.9999910593032837
      ],
      "translation": [
        -2.039651870727539,
        0.08895712345838547,
        0.0019973348826169968
      ]
    },
    {
      "children": [
        41
      ],
      "name": "R_point_jnt_001_025",
      "rotation": [
        -0.0066021038219332695,
        0.027234511449933052,
        -0.02074141427874565,
        0.9993921518325806
      ],
      "translation": [
        -9.258830070495605,
        -0.4298323690891266,
        -1.7354915142059326
      ]
    },
    {
      "name": "R_point_jnt_002_026",
      "rotation": [
        -1.9855152244563357e-10,
        -4.8021188803204495e-08,
        -0.004134629387408495,
        0.9999914765357971
      ],
      "scale": [
        5.0,
        1.0,
        1.0
      ],
      "translation": [
        -4.0868096351623535,
        0.021332763135433197,
        -0.0010912094730883837
      ]
    },
    {
      "children": [
        43
      ],
      "name": "R_ring_jnt_001_027",
      "rotation": [
        -0.021364856511354446,
        0.017668046057224274,
        -0.6393795013427734,
        0.7683913111686707
      ],
      "translation": [
        -9.112038612365723,
        -0.4151430130004883,
        2.349135637283325
      ]
    },
    {
      "name": "R_ring_jnt_002_028",
      "rotation": [
        0.0007635955116711557,
        0.0005103731527924538,
        -0.6250248551368713,
        0.7806043028831482
      ],
      "translation": [
        -4.01702880859375,
        0.04117090255022049,
        -0.0011246772482991219
      ]
    },
    {
      "children": [
        45
      ],
      "name": "R_pink_jnt_001_029",
      "rotation": [
        -0.022599026560783386,
        0.015878872945904732,
        -0.699133038520813,
        0.7144579291343689
      ],
      "translation": [
        -8.573335647583008,
        -0.39747294783592224,
        4.117478370666504
      ]
    },
    {
      "name": "R_pink_jnt_002_030",
      "rotation": [
        0.0008403015090152621,
        0.0005616483394987881,
        -0.6872625350952148,
        0.7264084815979004
      ],
      "translation": [
        -3.4655349254608154,
        0.012336731888353825,
        -0.0010677305981516838
      ]
    },
    {
      "children": [
        47
      ],
      "name": "neck_jnt_02_031",
      "rotation": [
        -0.24236397445201874,
        0.23200473189353943,
        0.0026990496553480625,
        0.942033052444458
      ],
      "translation": [
        23.757055282592773,
        0.14522841572761536,
        1.1747357845306396
      ]
    },
    {
      "children": [
        48
      ],
      "name": "neck_jnt_01_032",
      "rotation": [
        5.835431790387937e-16,
        -0.02587585523724556,
        1.8575344852141876e-17,
        0.9996652603149414
      ],
      "translation": [
        5.370546340942383,
        -1.5987211554602254e-14,
        0.36208102107048035
      ]
    },
    {
      "name": "head_jnt_033",
      "rotation": [
        0.9765194654464722,
        -0.18808697164058685,
        0.0774371474981308,
        0.07096800953149796
      ],
      "translation": [
        7.616067886352539,
        -1.0011489391326904,
        -0.1014520600438118
      ]
    },
    {
      "children": [
        50
      ],
      "name": "L_hip_034",
      "rotation": [
        -0.11472944170236588,
        0.760213315486908,
        -0.13208985328674316,
        0.6256717443466187
      ],
      "translation": [
        -4.751803398132324,
        -10.769400596618652,
        0.315062552690506
      ]
    },
    {
      "children": [
        51,
        53
      ],
      "name": "L_knee_035",
      "rotation": [
        -0.5761764645576477,
        0.4270108938217163,
        0.4434603750705719,
        0.5376107096672058
      ],
      "translation": [
        0.4870401918888092,
        -0.9788253903388977,
        -40.0
      ]
    },
    {
      "children": [
        52
      ],
      "name": "L_ankle_036",
      "rotation": [
        0.009140202775597572,
        -0.005930355750024319,
        0.2588582932949066,
        0.9658538699150085
      ],
      "translation": [
        43.17206954956055,
        0.19903485476970673,
        -0.04363664984703064
      ]
    },
    {
      "name": "L_ball_037",
      "rotation": [
        2.2503091057224367e-10,
        4.7586856465964625e-14,
        0.26880943775177,
        0.9631933569908142
      ],
      "translation": [
        14.026935577392578,
        1.4210854715202004e-14,
        8.881784197001252e-15
      ]
    },
    {
      "name": "L_dress_jnt_038",
      "rotation": [
        0.5130630731582642,
        -0.4865863621234894,
        -0.5130630731582642,
        -0.4865863621234894
      ]
    },
    {
      "children": [
        55
      ],
      "name": "R_hip_039",
      "rotation": [
        0.5864829421043396,
        0.03064700774848461,
        -0.029743952676653862,
        0.8088348507881165
      ],
      "translation": [
        -4.737282752990723,
        10.727867126464844,
        0.2724483907222748
      ]
    },
    {
      "children": [
        56,
        58
      ],
      "name": "R_knee_040",
      "rotation": [
        1.9319371892847092e-20,
        -7.741529069156087e-19,
        0.09486804157495499,
        0.9954899549484253
      ],
      "translation": [
        -40.0,
        -0.4876912236213684,
        8.881784197001252e-15
      ]
    },
    {
      "children": [
        57
      ],
      "name": "R_ankle_041",
      "rotation": [
        -0.0004863104550167918,
        0.0023905476555228233,
        -0.28459402918815613,
        0.9586450457572937
      ],
      "translation": [
        -43.18392562866211,
        0.1981624960899353,
        4.3448917352861827e-08
      ]
    },
    {
      "name": "R_ball_042",
      "rotation": [
        -6.124547535790725e-09,
        1.7117494088836338e-09,
        -0.26917436718940735,
        0.9630914330482483
      ],
      "translation": [
        -14.026920318603516,
        5.99397662881529e-06,
        4.796163466380676e-14
      ]
    },
    {
      "children": [
        59
      ],
      "name": "R_dress_jnt_043",
      "rotation": [
        0.5130631327629089,
        0.4865863025188446,
        0.5130631327629089,
        -0.4865863025188446
      ]
    },
    {
      "name": "R_dress_jnt_043_0"
    }
  ],
  "samplers": [
    {
      "magFilter": 9728,
      "minFilter": 9728,
      "wrapS": 10497,
      "wrapT": 10497
    }
  ],
  "scene": 0,
  "scenes": [
    {
      "name": "Sketchfab_Scene",
      "nodes": [
        0
      ]
    }
  ],
  "skins": [
    {
      "inverseBindMatrices": 21,
      "joints": [
        4,
        15,
        16,
        17,
        18,
        19,
        20,
        21,
        22,
        23,
        24,
        25,
        26,
        27,
        28,
        29,
        30,
        31,
        32,
        33,
        34,
        35,
        36,
        37,
        38,
        39,
        40,
        41,
        42,
        43,
        44,
        45,
        46,
        47,
        48,
        49,
        50,
        51,
        52,
        53,
        54,
        55,
        56,
        57,
        58,
        59
      ],
      "skeleton": 4
    }
  ],
  "textures": [
    {
      "sampler": 0,
      "source": 0
    },
    {
      "sampler": 0,
      "source": 1
    }
  ]
}
