{
	"asset":{
		"generator":"Khronos glTF Blender I/O v4.2.57",
		"version":"2.0"
	},
	"extensionsUsed":[
		"KHR_materials_specular"
	],
	"scene":0,
	"scenes":[
		{
			"name":"Scene",
			"nodes":[
				0,
				1,
				2,
				3,
				4,
				5,
				6,
				7,
				8,
				9,
				10,
				11,
				12,
				13,
				14
			]
		}
	],
	"nodes":[
		{
			"mesh":0,
			"name":"Cube",
			"scale":[
				1,
				0.7804581522941589,
				2.6235899925231934
			],
			"translation":[
				0,
				0.6915359497070312,
				0
			]
		},
		{
			"mesh":1,
			"name":"Cylinder",
			"rotation":[
				0,
				0,
				-0.7071068286895752,
				0.7071068286895752
			],
			"scale":[
				0.5380468964576721,
				0.1974646896123886,
				0.5380468964576721
			],
			"translation":[
				-0.9610146880149841,
				0.5301873087882996,
				1.5141606330871582
			]
		},
		{
			"mesh":2,
			"name":"Cube.003",
			"scale":[
				1,
				0.7804581522941589,
				2.6235899925231934
			],
			"translation":[
				0,
				0.6915359497070312,
				0
			]
		},
		{
			"mesh":3,
			"name":"Cube.004",
			"rotation":[
				0.00960260909050703,
				0.12351332604885101,
				-0.0769142135977745,
				0.989311158657074
			],
			"scale":[
				0.09203290194272995,
				0.09203290194272995,
				0.0797862708568573
			],
			"translation":[
				0.9557297229766846,
				1.2868279218673706,
				2.610836982727051
			]
		},
		{
			"mesh":4,
			"name":"Cylinder.001",
			"rotation":[
				0.7436944842338562,
				0.09676621854305267,
				-0.08534931391477585,
				0.6559499502182007
			],
			"scale":[
				0.23088020086288452,
				0.23088017106056213,
				0.23088021576404572
			],
			"translation":[
				0.5535842180252075,
				1.1692169904708862,
				2.5524375438690186
			]
		},
		{
			"mesh":5,
			"name":"Cube.005",
			"rotation":[
				0,
				0,
				-0.09959676116704941,
				0.9950278997421265
			],
			"scale":[
				0.12675175070762634,
				0.14754784107208252,
				0.06676217913627625
			],
			"translation":[
				0.87795090675354,
				0.9610775709152222,
				-2.6434059143066406
			]
		},
		{
			"mesh":6,
			"name":"Cube.006",
			"rotation":[
				0,
				0,
				-0.09959676116704941,
				0.9950278997421265
			],
			"scale":[
				0.11022784560918808,
				0.0868944600224495,
				0.06676217913627625
			],
			"translation":[
				0.8400354385375977,
				0.682369589805603,
				-2.6434059143066406
			]
		},
		{
			"mesh":7,
			"name":"Cube.007",
			"rotation":[
				0.07883850485086441,
				0,
				0,
				0.9968873858451843
			],
			"scale":[
				0.9654895067214966,
				0.15368910133838654,
				0.07242655754089355
			],
			"translation":[
				0.02326098643243313,
				0.41634681820869446,
				2.60685396194458
			]
		},
		{
			"mesh":8,
			"name":"Cube.008",
			"rotation":[
				0.13274864852428436,
				0,
				0,
				0.9911498427391052
			],
			"scale":[
				0.2825527489185333,
				0.15368908643722534,
				0.07242655009031296
			],
			"translation":[
				0.02326098643243313,
				1.3007490634918213,
				2.6600875854492188
			]
		},
		{
			"mesh":9,
			"name":"Cylinder.002",
			"rotation":[
				0,
				0,
				-0.7071068286895752,
				0.7071068286895752
			],
			"scale":[
				0.5380468964576721,
				0.1974646896123886,
				0.5380468964576721
			],
			"translation":[
				0,
				0.5301873087882996,
				-1.5736302137374878
			]
		},
		{
			"mesh":10,
			"name":"Cube.009",
			"rotation":[
				-0.02904670313000679,
				0,
				0,
				0.999578058719635
			],
			"scale":[
				0.4145883023738861,
				0.22425375878810883,
				0.07242655754089355
			],
			"translation":[
				0.02326098643243313,
				0.7834212183952332,
				-2.616795063018799
			]
		},
		{
			"mesh":11,
			"name":"Cube.010",
			"rotation":[
				-0.029046760872006416,
				0,
				0,
				0.999578058719635
			],
			"scale":[
				0.911207914352417,
				0.146549254655838,
				0.047330569475889206
			],
			"translation":[
				0.02326098643243313,
				0.3309859335422516,
				-2.616795063018799
			]
		},
		{
			"mesh":12,
			"name":"Cube.011",
			"rotation":[
				0.013003083877265453,
				0.12320177257061005,
				-0.10415121167898178,
				0.9868155121803284
			],
			"scale":[
				0.09203289449214935,
				0.13460220396518707,
				0.0797862708568573
			],
			"translation":[
				0.9053308963775635,
				1.0309571027755737,
				2.610836982727051
			]
		},
		{
			"mesh":13,
			"name":"Cylinder.003",
			"rotation":[
				0,
				0,
				-0.7071068286895752,
				0.7071068286895752
			],
			"scale":[
				0.5380468964576721,
				0.1974646896123886,
				0.5380468964576721
			],
			"translation":[
				0.9610129594802856,
				0.5301873087882996,
				1.5141607522964478
			]
		},
		{
			"mesh":14,
			"name":"Cube.012",
			"rotation":[
				-0.11587345600128174,
				0,
				0,
				0.9932640790939331
			],
			"scale":[
				0.298587441444397,
				0.1780734807252884,
				0.2985873818397522
			],
			"translation":[
				0,
				1.4962936639785767,
				2.177321672439575
			]
		}
	],
	"materials":[
		{
			"doubleSided":true,
			"extensions":{
				"KHR_materials_specular":{
					"specularColorFactor":[
						1.6712329387664795,
						1.6712329387664795,
						1.6712329387664795
					]
				}
			},
			"name":"Metal",
			"pbrMetallicRoughness":{
				"baseColorTexture":{
					"index":0
				},
				"metallicFactor":0.6219800710678101,
				"roughnessFactor":0.26301372051239014
			}
		},
		{
			"alphaMode":"BLEND",
			"doubleSided":true,
			"extensions":{
				"KHR_materials_specular":{
					"specularColorFactor":[
						1.479452133178711,
						1.479452133178711,
						1.479452133178711
					]
				}
			},
			"name":"Windows",
			"pbrMetallicRoughness":{
				"baseColorFactor":[
					1,
					1,
					1,
					0.9589040875434875
				],
				"baseColorTexture":{
					"index":1
				},
				"metallicFactor":0,
				"roughnessFactor":0
			}
		},
		{
			"doubleSided":true,
			"extensions":{
				"KHR_materials_specular":{
					"specularColorFactor":[
						1.6712329387664795,
						1.6712329387664795,
						1.6712329387664795
					]
				}
			},
			"name":"Rough",
			"pbrMetallicRoughness":{
				"baseColorTexture":{
					"index":2
				},
				"metallicFactor":0
			}
		},
		{
			"doubleSided":true,
			"name":"Emission",
			"pbrMetallicRoughness":{
				"baseColorFactor":[
					0.800000011920929,
					0.800000011920929,
					0.800000011920929,
					1
				],
				"metallicFactor":0,
				"roughnessFactor":0.4000000059604645
			}
		},
		{
			"doubleSided":true,
			"name":"Emission.2",
			"pbrMetallicRoughness":{
				"baseColorFactor":[
					0.800000011920929,
					0.800000011920929,
					0.800000011920929,
					1
				],
				"metallicFactor":0,
				"roughnessFactor":0.4000000059604645
			}
		}
	],
	"meshes":[
		{
			"name":"Cube.001",
			"primitives":[
				{
					"attributes":{
						"POSITION":0,
						"NORMAL":1,
						"TEXCOORD_0":2
					},
					"indices":3,
					"material":0
				},
				{
					"attributes":{
						"POSITION":4,
						"NORMAL":5,
						"TEXCOORD_0":6
					},
					"indices":7,
					"material":1
				},
				{
					"attributes":{
						"POSITION":8,
						"NORMAL":9,
						"TEXCOORD_0":10
					},
					"indices":11,
					"material":2
				}
			]
		},
		{
			"name":"Cylinder",
			"primitives":[
				{
					"attributes":{
						"POSITION":12,
						"NORMAL":13,
						"TEXCOORD_0":14
					},
					"indices":15,
					"material":0
				},
				{
					"attributes":{
						"POSITION":16,
						"NORMAL":17,
						"TEXCOORD_0":18
					},
					"indices":19,
					"material":2
				}
			]
		},
		{
			"name":"Cube.003",
			"primitives":[
				{
					"attributes":{
						"POSITION":20,
						"NORMAL":21,
						"TEXCOORD_0":22
					},
					"indices":23,
					"material":0
				},
				{
					"attributes":{
						"POSITION":24,
						"NORMAL":25,
						"TEXCOORD_0":26
					},
					"indices":27,
					"material":1
				}
			]
		},
		{
			"name":"Cube.004",
			"primitives":[
				{
					"attributes":{
						"POSITION":28,
						"NORMAL":29,
						"TEXCOORD_0":30
					},
					"indices":31,
					"material":3
				}
			]
		},
		{
			"name":"Cylinder.001",
			"primitives":[
				{
					"attributes":{
						"POSITION":32,
						"NORMAL":33,
						"TEXCOORD_0":34
					},
					"indices":35,
					"material":0
				},
				{
					"attributes":{
						"POSITION":36,
						"NORMAL":37,
						"TEXCOORD_0":38
					},
					"indices":39,
					"material":4
				}
			]
		},
		{
			"name":"Cube.005",
			"primitives":[
				{
					"attributes":{
						"POSITION":40,
						"NORMAL":41,
						"TEXCOORD_0":42
					},
					"indices":43,
					"material":3
				}
			]
		},
		{
			"name":"Cube.006",
			"primitives":[
				{
					"attributes":{
						"POSITION":44,
						"NORMAL":45,
						"TEXCOORD_0":46
					},
					"indices":43,
					"material":3
				}
			]
		},
		{
			"name":"Cube.007",
			"primitives":[
				{
					"attributes":{
						"POSITION":47,
						"NORMAL":48,
						"TEXCOORD_0":49
					},
					"indices":50,
					"material":0
				}
			]
		},
		{
			"name":"Cube.008",
			"primitives":[
				{
					"attributes":{
						"POSITION":51,
						"NORMAL":52,
						"TEXCOORD_0":53
					},
					"indices":50,
					"material":2
				}
			]
		},
		{
			"name":"Cylinder.006",
			"primitives":[
				{
					"attributes":{
						"POSITION":54,
						"NORMAL":55,
						"TEXCOORD_0":56
					},
					"indices":57,
					"material":0
				},
				{
					"attributes":{
						"POSITION":58,
						"NORMAL":59,
						"TEXCOORD_0":60
					},
					"indices":61,
					"material":2
				}
			]
		},
		{
			"name":"Cube.009",
			"primitives":[
				{
					"attributes":{
						"POSITION":62,
						"NORMAL":63,
						"TEXCOORD_0":64
					},
					"indices":50,
					"material":2
				}
			]
		},
		{
			"name":"Cube.010",
			"primitives":[
				{
					"attributes":{
						"POSITION":65,
						"NORMAL":66,
						"TEXCOORD_0":67
					},
					"indices":50,
					"material":0
				}
			]
		},
		{
			"name":"Cube.011",
			"primitives":[
				{
					"attributes":{
						"POSITION":68,
						"NORMAL":69,
						"TEXCOORD_0":70
					},
					"indices":31,
					"material":3
				}
			]
		},
		{
			"name":"Cylinder.007",
			"primitives":[
				{
					"attributes":{
						"POSITION":71,
						"NORMAL":72,
						"TEXCOORD_0":73
					},
					"indices":74,
					"material":0
				},
				{
					"attributes":{
						"POSITION":75,
						"NORMAL":76,
						"TEXCOORD_0":77
					},
					"indices":78,
					"material":2
				}
			]
		},
		{
			"name":"Cube.012",
			"primitives":[
				{
					"attributes":{
						"POSITION":79,
						"NORMAL":80,
						"TEXCOORD_0":81
					},
					"indices":82,
					"material":0
				},
				{
					"attributes":{
						"POSITION":83,
						"NORMAL":84,
						"TEXCOORD_0":85
					},
					"indices":86,
					"material":2
				}
			]
		}
	],
	"textures":[
		{
			"sampler":0,
			"source":0
		},
		{
			"sampler":0,
			"source":0
		},
		{
			"sampler":0,
			"source":0
		}
	],
	"images":[
		{
			"mimeType":"image/jpeg",
			"name":"Material Colors",
			"uri":"Material%20Colors.jpg"
		}
	],
	"accessors":[
		{
			"bufferView":0,
			"componentType":5126,
			"count":367,
			"max":[
				1,
				2.615872621536255,
				1.1133238077163696
			],
			"min":[
				-1,
				-0.5294995307922363,
				-1.030212163925171
			],
			"type":"VEC3"
		},
		{
			"bufferView":1,
			"componentType":5126,
			"count":367,
			"type":"VEC3"
		},
		{
			"bufferView":2,
			"componentType":5126,
			"count":367,
			"type":"VEC2"
		},
		{
			"bufferView":3,
			"componentType":5123,
			"count":621,
			"type":"SCALAR"
		},
		{
			"bufferView":4,
			"componentType":5126,
			"count":25,
			"max":[
				0.9141368865966797,
				2.444406270980835,
				0.512520968914032
			],
			"min":[
				-0.9141368865966797,
				1.1328740119934082,
				-0.5161285400390625
			],
			"type":"VEC3"
		},
		{
			"bufferView":5,
			"componentType":5126,
			"count":25,
			"type":"VEC3"
		},
		{
			"bufferView":6,
			"componentType":5126,
			"count":25,
			"type":"VEC2"
		},
		{
			"bufferView":7,
			"componentType":5123,
			"count":39,
			"type":"SCALAR"
		},
		{
			"bufferView":8,
			"componentType":5126,
			"count":142,
			"max":[
				1,
				0.6262676119804382,
				1
			],
			"min":[
				-1,
				-0.5294995307922363,
				-1
			],
			"type":"VEC3"
		},
		{
			"bufferView":9,
			"componentType":5126,
			"count":142,
			"type":"VEC3"
		},
		{
			"bufferView":10,
			"componentType":5126,
			"count":142,
			"type":"VEC2"
		},
		{
			"bufferView":11,
			"componentType":5123,
			"count":270,
			"type":"SCALAR"
		},
		{
			"bufferView":12,
			"componentType":5126,
			"count":204,
			"max":[
				0.7630429267883301,
				0.14496898651123047,
				0.7630429863929749
			],
			"min":[
				-0.7630429863929749,
				-0.686676025390625,
				-0.7630429863929749
			],
			"type":"VEC3"
		},
		{
			"bufferView":13,
			"componentType":5126,
			"count":204,
			"type":"VEC3"
		},
		{
			"bufferView":14,
			"componentType":5126,
			"count":204,
			"type":"VEC2"
		},
		{
			"bufferView":15,
			"componentType":5123,
			"count":318,
			"type":"SCALAR"
		},
		{
			"bufferView":16,
			"componentType":5126,
			"count":108,
			"max":[
				1,
				1.5815043449401855,
				1
			],
			"min":[
				-1,
				-0.5682754516601562,
				-1
			],
			"type":"VEC3"
		},
		{
			"bufferView":17,
			"componentType":5126,
			"count":108,
			"type":"VEC3"
		},
		{
			"bufferView":18,
			"componentType":5126,
			"count":108,
			"type":"VEC2"
		},
		{
			"bufferView":19,
			"componentType":5123,
			"count":174,
			"type":"SCALAR"
		},
		{
			"bufferView":20,
			"componentType":5126,
			"count":72,
			"max":[
				1.370125651359558,
				1.124192714691162,
				0.5771974325180054
			],
			"min":[
				-1.370125651359558,
				0.8758070468902588,
				0.5139849781990051
			],
			"type":"VEC3"
		},
		{
			"bufferView":21,
			"componentType":5126,
			"count":72,
			"type":"VEC3"
		},
		{
			"bufferView":22,
			"componentType":5126,
			"count":72,
			"type":"VEC2"
		},
		{
			"bufferView":23,
			"componentType":5123,
			"count":108,
			"type":"SCALAR"
		},
		{
			"bufferView":24,
			"componentType":5126,
			"count":8,
			"max":[
				1.370125651359558,
				1.124192714691162,
				0.5508866310119629
			],
			"min":[
				-1.370125651359558,
				0.8758070468902588,
				0.5508866310119629
			],
			"type":"VEC3"
		},
		{
			"bufferView":25,
			"componentType":5126,
			"count":8,
			"type":"VEC3"
		},
		{
			"bufferView":26,
			"componentType":5126,
			"count":8,
			"type":"VEC2"
		},
		{
			"bufferView":27,
			"componentType":5123,
			"count":12,
			"type":"SCALAR"
		},
		{
			"bufferView":28,
			"componentType":5126,
			"count":48,
			"max":[
				1,
				1,
				1
			],
			"min":[
				-21.423452377319336,
				-4.523370742797852,
				-7.324690818786621
			],
			"type":"VEC3"
		},
		{
			"bufferView":29,
			"componentType":5126,
			"count":48,
			"type":"VEC3"
		},
		{
			"bufferView":30,
			"componentType":5126,
			"count":48,
			"type":"VEC2"
		},
		{
			"bufferView":31,
			"componentType":5123,
			"count":72,
			"type":"SCALAR"
		},
		{
			"bufferView":32,
			"componentType":5126,
			"count":176,
			"max":[
				1,
				1,
				1.0000001192092896
			],
			"min":[
				-5.999541759490967,
				-2.590930461883545,
				-1
			],
			"type":"VEC3"
		},
		{
			"bufferView":33,
			"componentType":5126,
			"count":176,
			"type":"VEC3"
		},
		{
			"bufferView":34,
			"componentType":5126,
			"count":176,
			"type":"VEC2"
		},
		{
			"bufferView":35,
			"componentType":5123,
			"count":324,
			"type":"SCALAR"
		},
		{
			"bufferView":36,
			"componentType":5126,
			"count":16,
			"max":[
				0.6875512599945068,
				0.6731430888175964,
				0.6875513195991516
			],
			"min":[
				-5.5662994384765625,
				-0.9823301434516907,
				-0.6875512003898621
			],
			"type":"VEC3"
		},
		{
			"bufferView":37,
			"componentType":5126,
			"count":16,
			"type":"VEC3"
		},
		{
			"bufferView":38,
			"componentType":5126,
			"count":16,
			"type":"VEC2"
		},
		{
			"bufferView":39,
			"componentType":5123,
			"count":36,
			"type":"SCALAR"
		},
		{
			"bufferView":40,
			"componentType":5126,
			"count":48,
			"max":[
				1,
				1,
				1.0000038146972656
			],
			"min":[
				-14.951966285705566,
				-3.6139373779296875,
				-1
			],
			"type":"VEC3"
		},
		{
			"bufferView":41,
			"componentType":5126,
			"count":48,
			"type":"VEC3"
		},
		{
			"bufferView":42,
			"componentType":5126,
			"count":48,
			"type":"VEC2"
		},
		{
			"bufferView":43,
			"componentType":5123,
			"count":72,
			"type":"SCALAR"
		},
		{
			"bufferView":44,
			"componentType":5126,
			"count":48,
			"max":[
				1,
				1,
				1
			],
			"min":[
				-16.16714096069336,
				-5.246486663818359,
				-1
			],
			"type":"VEC3"
		},
		{
			"bufferView":45,
			"componentType":5126,
			"count":48,
			"type":"VEC3"
		},
		{
			"bufferView":46,
			"componentType":5126,
			"count":48,
			"type":"VEC2"
		},
		{
			"bufferView":47,
			"componentType":5126,
			"count":24,
			"max":[
				1,
				1,
				1
			],
			"min":[
				-1,
				-1,
				-1
			],
			"type":"VEC3"
		},
		{
			"bufferView":48,
			"componentType":5126,
			"count":24,
			"type":"VEC3"
		},
		{
			"bufferView":49,
			"componentType":5126,
			"count":24,
			"type":"VEC2"
		},
		{
			"bufferView":50,
			"componentType":5123,
			"count":36,
			"type":"SCALAR"
		},
		{
			"bufferView":51,
			"componentType":5126,
			"count":24,
			"max":[
				1,
				1,
				1
			],
			"min":[
				-1,
				-1,
				-1
			],
			"type":"VEC3"
		},
		{
			"bufferView":52,
			"componentType":5126,
			"count":24,
			"type":"VEC3"
		},
		{
			"bufferView":53,
			"componentType":5126,
			"count":24,
			"type":"VEC2"
		},
		{
			"bufferView":54,
			"componentType":5126,
			"count":408,
			"max":[
				0.7630431056022644,
				5.5534467697143555,
				0.7630431056022644
			],
			"min":[
				-0.7630431056022644,
				-5.553439140319824,
				-0.7630431056022644
			],
			"type":"VEC3"
		},
		{
			"bufferView":55,
			"componentType":5126,
			"count":408,
			"type":"VEC3"
		},
		{
			"bufferView":56,
			"componentType":5126,
			"count":408,
			"type":"VEC2"
		},
		{
			"bufferView":57,
			"componentType":5123,
			"count":636,
			"type":"SCALAR"
		},
		{
			"bufferView":58,
			"componentType":5126,
			"count":216,
			"max":[
				1.0000001192092896,
				5.4350457191467285,
				1.0000001192092896
			],
			"min":[
				-1.0000001192092896,
				-5.4350385665893555,
				-1.0000001192092896
			],
			"type":"VEC3"
		},
		{
			"bufferView":59,
			"componentType":5126,
			"count":216,
			"type":"VEC3"
		},
		{
			"bufferView":60,
			"componentType":5126,
			"count":216,
			"type":"VEC2"
		},
		{
			"bufferView":61,
			"componentType":5123,
			"count":348,
			"type":"SCALAR"
		},
		{
			"bufferView":62,
			"componentType":5126,
			"count":24,
			"max":[
				1,
				1,
				1
			],
			"min":[
				-1,
				-1,
				-1
			],
			"type":"VEC3"
		},
		{
			"bufferView":63,
			"componentType":5126,
			"count":24,
			"type":"VEC3"
		},
		{
			"bufferView":64,
			"componentType":5126,
			"count":24,
			"type":"VEC2"
		},
		{
			"bufferView":65,
			"componentType":5126,
			"count":24,
			"max":[
				1,
				1,
				1
			],
			"min":[
				-1,
				-1,
				-1
			],
			"type":"VEC3"
		},
		{
			"bufferView":66,
			"componentType":5126,
			"count":24,
			"type":"VEC3"
		},
		{
			"bufferView":67,
			"componentType":5126,
			"count":24,
			"type":"VEC2"
		},
		{
			"bufferView":68,
			"componentType":5126,
			"count":48,
			"max":[
				1,
				1,
				1
			],
			"min":[
				-20.421255111694336,
				-4.051190376281738,
				-7.036231994628906
			],
			"type":"VEC3"
		},
		{
			"bufferView":69,
			"componentType":5126,
			"count":48,
			"type":"VEC3"
		},
		{
			"bufferView":70,
			"componentType":5126,
			"count":48,
			"type":"VEC2"
		},
		{
			"bufferView":71,
			"componentType":5126,
			"count":204,
			"max":[
				0.7630429863929749,
				0.686684250831604,
				0.7630429863929749
			],
			"min":[
				-0.7630429267883301,
				-0.14496025443077087,
				-0.7630429863929749
			],
			"type":"VEC3"
		},
		{
			"bufferView":72,
			"componentType":5126,
			"count":204,
			"type":"VEC3"
		},
		{
			"bufferView":73,
			"componentType":5126,
			"count":204,
			"type":"VEC2"
		},
		{
			"bufferView":74,
			"componentType":5123,
			"count":318,
			"type":"SCALAR"
		},
		{
			"bufferView":75,
			"componentType":5126,
			"count":108,
			"max":[
				1,
				0.568282961845398,
				1
			],
			"min":[
				-1,
				-1.5814958810806274,
				-1
			],
			"type":"VEC3"
		},
		{
			"bufferView":76,
			"componentType":5126,
			"count":108,
			"type":"VEC3"
		},
		{
			"bufferView":77,
			"componentType":5126,
			"count":108,
			"type":"VEC2"
		},
		{
			"bufferView":78,
			"componentType":5123,
			"count":174,
			"type":"SCALAR"
		},
		{
			"bufferView":79,
			"componentType":5126,
			"count":28,
			"max":[
				1,
				1,
				1
			],
			"min":[
				-1,
				-1,
				-1
			],
			"type":"VEC3"
		},
		{
			"bufferView":80,
			"componentType":5126,
			"count":28,
			"type":"VEC3"
		},
		{
			"bufferView":81,
			"componentType":5126,
			"count":28,
			"type":"VEC2"
		},
		{
			"bufferView":82,
			"componentType":5123,
			"count":54,
			"type":"SCALAR"
		},
		{
			"bufferView":83,
			"componentType":5126,
			"count":20,
			"max":[
				0.8496648073196411,
				0.8496648073196411,
				1
			],
			"min":[
				-0.8496648073196411,
				-0.8496648073196411,
				0.6729066371917725
			],
			"type":"VEC3"
		},
		{
			"bufferView":84,
			"componentType":5126,
			"count":20,
			"type":"VEC3"
		},
		{
			"bufferView":85,
			"componentType":5126,
			"count":20,
			"type":"VEC2"
		},
		{
			"bufferView":86,
			"componentType":5123,
			"count":30,
			"type":"SCALAR"
		}
	],
	"bufferViews":[
		{
			"buffer":0,
			"byteLength":4404,
			"byteOffset":0,
			"target":34962
		},
		{
			"buffer":0,
			"byteLength":4404,
			"byteOffset":4404,
			"target":34962
		},
		{
			"buffer":0,
			"byteLength":2936,
			"byteOffset":8808,
			"target":34962
		},
		{
			"buffer":0,
			"byteLength":1242,
			"byteOffset":11744,
			"target":34963
		},
		{
			"buffer":0,
			"byteLength":300,
			"byteOffset":12988,
			"target":34962
		},
		{
			"buffer":0,
			"byteLength":300,
			"byteOffset":13288,
			"target":34962
		},
		{
			"buffer":0,
			"byteLength":200,
			"byteOffset":13588,
			"target":34962
		},
		{
			"buffer":0,
			"byteLength":78,
			"byteOffset":13788,
			"target":34963
		},
		{
			"buffer":0,
			"byteLength":1704,
			"byteOffset":13868,
			"target":34962
		},
		{
			"buffer":0,
			"byteLength":1704,
			"byteOffset":15572,
			"target":34962
		},
		{
			"buffer":0,
			"byteLength":1136,
			"byteOffset":17276,
			"target":34962
		},
		{
			"buffer":0,
			"byteLength":540,
			"byteOffset":18412,
			"target":34963
		},
		{
			"buffer":0,
			"byteLength":2448,
			"byteOffset":18952,
			"target":34962
		},
		{
			"buffer":0,
			"byteLength":2448,
			"byteOffset":21400,
			"target":34962
		},
		{
			"buffer":0,
			"byteLength":1632,
			"byteOffset":23848,
			"target":34962
		},
		{
			"buffer":0,
			"byteLength":636,
			"byteOffset":25480,
			"target":34963
		},
		{
			"buffer":0,
			"byteLength":1296,
			"byteOffset":26116,
			"target":34962
		},
		{
			"buffer":0,
			"byteLength":1296,
			"byteOffset":27412,
			"target":34962
		},
		{
			"buffer":0,
			"byteLength":864,
			"byteOffset":28708,
			"target":34962
		},
		{
			"buffer":0,
			"byteLength":348,
			"byteOffset":29572,
			"target":34963
		},
		{
			"buffer":0,
			"byteLength":864,
			"byteOffset":29920,
			"target":34962
		},
		{
			"buffer":0,
			"byteLength":864,
			"byteOffset":30784,
			"target":34962
		},
		{
			"buffer":0,
			"byteLength":576,
			"byteOffset":31648,
			"target":34962
		},
		{
			"buffer":0,
			"byteLength":216,
			"byteOffset":32224,
			"target":34963
		},
		{
			"buffer":0,
			"byteLength":96,
			"byteOffset":32440,
			"target":34962
		},
		{
			"buffer":0,
			"byteLength":96,
			"byteOffset":32536,
			"target":34962
		},
		{
			"buffer":0,
			"byteLength":64,
			"byteOffset":32632,
			"target":34962
		},
		{
			"buffer":0,
			"byteLength":24,
			"byteOffset":32696,
			"target":34963
		},
		{
			"buffer":0,
			"byteLength":576,
			"byteOffset":32720,
			"target":34962
		},
		{
			"buffer":0,
			"byteLength":576,
			"byteOffset":33296,
			"target":34962
		},
		{
			"buffer":0,
			"byteLength":384,
			"byteOffset":33872,
			"target":34962
		},
		{
			"buffer":0,
			"byteLength":144,
			"byteOffset":34256,
			"target":34963
		},
		{
			"buffer":0,
			"byteLength":2112,
			"byteOffset":34400,
			"target":34962
		},
		{
			"buffer":0,
			"byteLength":2112,
			"byteOffset":36512,
			"target":34962
		},
		{
			"buffer":0,
			"byteLength":1408,
			"byteOffset":38624,
			"target":34962
		},
		{
			"buffer":0,
			"byteLength":648,
			"byteOffset":40032,
			"target":34963
		},
		{
			"buffer":0,
			"byteLength":192,
			"byteOffset":40680,
			"target":34962
		},
		{
			"buffer":0,
			"byteLength":192,
			"byteOffset":40872,
			"target":34962
		},
		{
			"buffer":0,
			"byteLength":128,
			"byteOffset":41064,
			"target":34962
		},
		{
			"buffer":0,
			"byteLength":72,
			"byteOffset":41192,
			"target":34963
		},
		{
			"buffer":0,
			"byteLength":576,
			"byteOffset":41264,
			"target":34962
		},
		{
			"buffer":0,
			"byteLength":576,
			"byteOffset":41840,
			"target":34962
		},
		{
			"buffer":0,
			"byteLength":384,
			"byteOffset":42416,
			"target":34962
		},
		{
			"buffer":0,
			"byteLength":144,
			"byteOffset":42800,
			"target":34963
		},
		{
			"buffer":0,
			"byteLength":576,
			"byteOffset":42944,
			"target":34962
		},
		{
			"buffer":0,
			"byteLength":576,
			"byteOffset":43520,
			"target":34962
		},
		{
			"buffer":0,
			"byteLength":384,
			"byteOffset":44096,
			"target":34962
		},
		{
			"buffer":0,
			"byteLength":288,
			"byteOffset":44480,
			"target":34962
		},
		{
			"buffer":0,
			"byteLength":288,
			"byteOffset":44768,
			"target":34962
		},
		{
			"buffer":0,
			"byteLength":192,
			"byteOffset":45056,
			"target":34962
		},
		{
			"buffer":0,
			"byteLength":72,
			"byteOffset":45248,
			"target":34963
		},
		{
			"buffer":0,
			"byteLength":288,
			"byteOffset":45320,
			"target":34962
		},
		{
			"buffer":0,
			"byteLength":288,
			"byteOffset":45608,
			"target":34962
		},
		{
			"buffer":0,
			"byteLength":192,
			"byteOffset":45896,
			"target":34962
		},
		{
			"buffer":0,
			"byteLength":4896,
			"byteOffset":46088,
			"target":34962
		},
		{
			"buffer":0,
			"byteLength":4896,
			"byteOffset":50984,
			"target":34962
		},
		{
			"buffer":0,
			"byteLength":3264,
			"byteOffset":55880,
			"target":34962
		},
		{
			"buffer":0,
			"byteLength":1272,
			"byteOffset":59144,
			"target":34963
		},
		{
			"buffer":0,
			"byteLength":2592,
			"byteOffset":60416,
			"target":34962
		},
		{
			"buffer":0,
			"byteLength":2592,
			"byteOffset":63008,
			"target":34962
		},
		{
			"buffer":0,
			"byteLength":1728,
			"byteOffset":65600,
			"target":34962
		},
		{
			"buffer":0,
			"byteLength":696,
			"byteOffset":67328,
			"target":34963
		},
		{
			"buffer":0,
			"byteLength":288,
			"byteOffset":68024,
			"target":34962
		},
		{
			"buffer":0,
			"byteLength":288,
			"byteOffset":68312,
			"target":34962
		},
		{
			"buffer":0,
			"byteLength":192,
			"byteOffset":68600,
			"target":34962
		},
		{
			"buffer":0,
			"byteLength":288,
			"byteOffset":68792,
			"target":34962
		},
		{
			"buffer":0,
			"byteLength":288,
			"byteOffset":69080,
			"target":34962
		},
		{
			"buffer":0,
			"byteLength":192,
			"byteOffset":69368,
			"target":34962
		},
		{
			"buffer":0,
			"byteLength":576,
			"byteOffset":69560,
			"target":34962
		},
		{
			"buffer":0,
			"byteLength":576,
			"byteOffset":70136,
			"target":34962
		},
		{
			"buffer":0,
			"byteLength":384,
			"byteOffset":70712,
			"target":34962
		},
		{
			"buffer":0,
			"byteLength":2448,
			"byteOffset":71096,
			"target":34962
		},
		{
			"buffer":0,
			"byteLength":2448,
			"byteOffset":73544,
			"target":34962
		},
		{
			"buffer":0,
			"byteLength":1632,
			"byteOffset":75992,
			"target":34962
		},
		{
			"buffer":0,
			"byteLength":636,
			"byteOffset":77624,
			"target":34963
		},
		{
			"buffer":0,
			"byteLength":1296,
			"byteOffset":78260,
			"target":34962
		},
		{
			"buffer":0,
			"byteLength":1296,
			"byteOffset":79556,
			"target":34962
		},
		{
			"buffer":0,
			"byteLength":864,
			"byteOffset":80852,
			"target":34962
		},
		{
			"buffer":0,
			"byteLength":348,
			"byteOffset":81716,
			"target":34963
		},
		{
			"buffer":0,
			"byteLength":336,
			"byteOffset":82064,
			"target":34962
		},
		{
			"buffer":0,
			"byteLength":336,
			"byteOffset":82400,
			"target":34962
		},
		{
			"buffer":0,
			"byteLength":224,
			"byteOffset":82736,
			"target":34962
		},
		{
			"buffer":0,
			"byteLength":108,
			"byteOffset":82960,
			"target":34963
		},
		{
			"buffer":0,
			"byteLength":240,
			"byteOffset":83068,
			"target":34962
		},
		{
			"buffer":0,
			"byteLength":240,
			"byteOffset":83308,
			"target":34962
		},
		{
			"buffer":0,
			"byteLength":160,
			"byteOffset":83548,
			"target":34962
		},
		{
			"buffer":0,
			"byteLength":60,
			"byteOffset":83708,
			"target":34963
		}
	],
	"samplers":[
		{
			"magFilter":9729,
			"minFilter":9987
		}
	],
	"buffers":[
		{
			"byteLength":83768,
			"uri":"scene.bin"
		}
	]
}
